<?xml version="1.0" encoding="utf-8"?>
<!-- Generator: Adobe Illustrator 15.1.0, SVG Export Plug-In . SVG Version: 6.00 Build 0)  -->
<!DOCTYPE svg PUBLIC "-//W3C//DTD SVG 1.1//EN" "http://www.w3.org/Graphics/SVG/1.1/DTD/svg11.dtd">
<svg version="1.1" id="Layer_1" xmlns="http://www.w3.org/2000/svg" xmlns:xlink="http://www.w3.org/1999/xlink" x="0px" y="0px"
	 width="266.1px" height="62.7px" viewBox="0 0 266.1 62.7" enable-background="new 0 0 266.1 62.7" xml:space="preserve">
<g>
	<defs>
		<rect id="SVGID_1_" y="0" width="266.1" height="62.7"/>
	</defs>
	<clipPath id="SVGID_2_">
		<use xlink:href="#SVGID_1_"  overflow="visible"/>
	</clipPath>
	<path clip-path="url(#SVGID_2_)" fill-rule="evenodd" clip-rule="evenodd" fill="#28A9E0" d="M181.05,21.1
		c-0.834,0.034-1.5,0.3-2,0.8c-0.467,0.467-0.75,1.15-0.85,2.05h-5.55c0.033-1.566,0.383-2.933,1.05-4.1
		c0.633-1.2,1.567-2.133,2.8-2.8c1.234-0.666,2.734-1,4.5-1c1.833,0,3.383,0.334,4.65,1c1.266,0.633,2.232,1.5,2.899,2.6
		c0.666,1.067,1,2.25,1,3.55c0,0.767-0.167,1.534-0.5,2.3c-0.334,0.767-0.85,1.617-1.55,2.55c-0.7,0.934-1.617,2.067-2.75,3.4
		l-3.149,3.8h8.149v4.7h-16.6V37.2l7.1-8.65c0.7-0.8,1.3-1.5,1.8-2.1s0.884-1.133,1.15-1.6c0.266-0.466,0.4-0.95,0.4-1.45
		c0-0.567-0.2-1.083-0.601-1.55C182.633,21.384,181.984,21.134,181.05,21.1 M66.5,29.95l-13.7-6V14.9l24,10.5L66.5,29.95z M80,26.75
		v9.101L52.8,47.7v-9.05L80,26.75z M27.2,14.9v9.05l-13.7,6L3.15,25.4L27.2,14.9z M27.2,47.7L0,35.85V26.75l27.2,11.9V47.7z"/>
	<path clip-path="url(#SVGID_2_)" fill-rule="evenodd" clip-rule="evenodd" fill="#2D3236" d="M141.301,19.95
		c0.7,1,1.132,2.283,1.299,3.85h-5.849c-0.134-0.867-0.5-1.567-1.102-2.1c-0.633-0.567-1.532-0.85-2.7-0.85c-1,0-1.8,0.2-2.399,0.6
		c-0.601,0.4-0.901,0.983-0.901,1.75c0,0.633,0.217,1.117,0.651,1.45c0.466,0.333,1.133,0.583,2,0.75l3.299,0.75
		c1.435,0.3,2.667,0.717,3.701,1.25c1.066,0.533,1.882,1.233,2.45,2.1c0.565,0.9,0.866,2.016,0.898,3.35
		c-0.032,1.566-0.45,2.916-1.25,4.05s-1.916,2-3.349,2.6c-1.467,0.601-3.167,0.917-5.101,0.95c-1.8,0-3.45-0.283-4.95-0.85
		c-1.533-0.601-2.8-1.5-3.8-2.7c-1-1.233-1.6-2.816-1.8-4.75h5.8c0.2,1.066,0.717,1.884,1.55,2.45
		c0.867,0.566,1.984,0.866,3.35,0.899c1.1-0.033,1.917-0.216,2.451-0.55c0.566-0.366,0.849-0.883,0.849-1.55
		c0.033-0.4-0.133-0.783-0.5-1.15c-0.333-0.367-0.982-0.65-1.95-0.85l-3.85-0.85c-2.299-0.5-4.016-1.3-5.15-2.4
		c-1.1-1.133-1.649-2.633-1.649-4.5c0-1.567,0.399-2.917,1.199-4.05c0.767-1.133,1.85-2.017,3.25-2.65c1.367-0.6,2.984-0.9,4.85-0.9
		c0.967-0.033,1.984,0.067,3.05,0.3c1.102,0.233,2.151,0.633,3.151,1.2S140.634,18.917,141.301,19.95 M147.699,16.55h9.45
		c2.468,0.033,4.635,0.533,6.5,1.5c1.901,0.967,3.385,2.333,4.45,4.1c1.1,1.733,1.651,3.75,1.651,6.05
		c0,2.333-0.552,4.367-1.651,6.101c-1.065,1.767-2.549,3.149-4.45,4.149c-1.865,0.967-4.032,1.467-6.5,1.5h-9.45V16.55z
		 M157.149,21.8h-3.599v12.95h3.599c1.268-0.033,2.401-0.333,3.401-0.899c1.033-0.566,1.833-1.334,2.398-2.3
		c0.602-1,0.9-2.117,0.9-3.35c0-1.233-0.299-2.333-0.9-3.3c-0.565-0.967-1.365-1.717-2.398-2.25
		C159.551,22.083,158.417,21.8,157.149,21.8 M118.1,20.55c0.8,1.3,1.201,2.817,1.201,4.55c0,1.833-0.434,3.417-1.301,4.75
		c-0.833,1.333-2.016,2.35-3.55,3.05c-1.533,0.733-3.383,1.1-5.55,1.1h-3.099v5.95H99.95v-23.4h9.45c2.034,0,3.784,0.35,5.25,1.05
		C116.15,18.3,117.301,19.283,118.1,20.55 M109.25,21.7h-3.449v7.2h3.449c1.301,0,2.334-0.333,3.1-1c0.734-0.667,1.117-1.6,1.15-2.8
		c-0.033-1.067-0.416-1.9-1.15-2.5C111.583,22,110.551,21.7,109.25,21.7 M195.751,21.95c1.065-1.833,2.533-3.267,4.398-4.3
		c1.867-1.033,3.984-1.567,6.352-1.6c2.133,0.033,4.033,0.467,5.698,1.3c1.668,0.867,3.034,2.05,4.102,3.55
		c1.033,1.533,1.666,3.317,1.898,5.35h-5.948c-0.334-1.467-0.984-2.617-1.95-3.45c-1-0.867-2.284-1.3-3.852-1.3
		c-1.267,0-2.383,0.3-3.35,0.9c-0.966,0.567-1.732,1.35-2.299,2.35c-0.534,1.033-0.8,2.2-0.8,3.5c0,1.3,0.266,2.467,0.8,3.5
		c0.566,1,1.333,1.784,2.299,2.35c0.967,0.6,2.083,0.899,3.35,0.899c1.567,0,2.852-0.433,3.852-1.3
		c0.966-0.833,1.616-1.984,1.95-3.45h5.948c-0.232,2.034-0.865,3.817-1.898,5.35c-1.067,1.5-2.434,2.684-4.102,3.55
		c-1.665,0.833-3.565,1.267-5.698,1.3c-2.367-0.033-4.484-0.566-6.352-1.6c-1.865-1.033-3.333-2.467-4.398-4.3
		c-1.068-1.834-1.617-3.934-1.651-6.3C194.134,25.883,194.683,23.783,195.751,21.95 M246.751,23.65c0-1.567,0.398-2.917,1.198-4.05
		c0.768-1.133,1.852-2.017,3.25-2.65c1.367-0.6,2.983-0.9,4.852-0.9c0.966-0.033,1.982,0.067,3.049,0.3
		c1.1,0.233,2.151,0.633,3.151,1.2s1.833,1.367,2.5,2.4c0.698,1,1.133,2.283,1.3,3.85h-5.852c-0.133-0.867-0.5-1.567-1.1-2.1
		c-0.633-0.567-1.533-0.85-2.7-0.85c-1,0-1.8,0.2-2.398,0.6c-0.602,0.4-0.901,0.983-0.901,1.75c0,0.633,0.217,1.117,0.651,1.45
		c0.466,0.333,1.133,0.583,2,0.75l3.3,0.75c1.433,0.3,2.666,0.717,3.7,1.25c1.065,0.533,1.883,1.233,2.448,2.1
		c0.567,0.9,0.867,2.016,0.9,3.35c-0.033,1.566-0.45,2.916-1.25,4.05c-0.799,1.134-1.917,2-3.349,2.6
		c-1.468,0.601-3.167,0.917-5.102,0.95c-1.8,0-3.45-0.283-4.95-0.85c-1.532-0.601-2.8-1.5-3.8-2.7c-1-1.233-1.599-2.816-1.8-4.75
		h5.8c0.2,1.066,0.718,1.884,1.55,2.45c0.867,0.566,1.983,0.866,3.352,0.899c1.099-0.033,1.916-0.216,2.45-0.55
		c0.565-0.366,0.849-0.883,0.849-1.55c0.034-0.4-0.133-0.783-0.5-1.15c-0.333-0.367-0.982-0.65-1.95-0.85l-3.849-0.85
		c-2.3-0.5-4.017-1.3-5.151-2.4C247.301,27.017,246.751,25.517,246.751,23.65 M222.949,23.65c0-1.567,0.4-2.917,1.2-4.05
		c0.768-1.133,1.852-2.017,3.25-2.65c1.367-0.6,2.984-0.9,4.852-0.9c0.966-0.033,1.982,0.067,3.05,0.3
		c1.099,0.233,2.148,0.633,3.148,1.2s1.835,1.367,2.5,2.4c0.7,1,1.135,2.283,1.302,3.85h-5.852c-0.133-0.867-0.5-1.567-1.099-2.1
		c-0.634-0.567-1.534-0.85-2.701-0.85c-1,0-1.799,0.2-2.4,0.6c-0.6,0.4-0.898,0.983-0.898,1.75c0,0.633,0.216,1.117,0.648,1.45
		c0.468,0.333,1.135,0.583,2,0.75l3.302,0.75c1.432,0.3,2.666,0.717,3.698,1.25c1.067,0.533,1.885,1.233,2.45,2.1
		c0.567,0.9,0.867,2.016,0.901,3.35c-0.034,1.566-0.451,2.916-1.25,4.05c-0.8,1.134-1.917,2-3.352,2.6
		c-1.466,0.601-3.165,0.917-5.1,0.95c-1.799,0-3.45-0.283-4.95-0.85c-1.532-0.601-2.8-1.5-3.8-2.7c-1-1.233-1.599-2.816-1.799-4.75
		h5.799c0.201,1.066,0.717,1.884,1.55,2.45c0.867,0.566,1.984,0.866,3.352,0.899c1.099-0.033,1.916-0.216,2.448-0.55
		c0.567-0.366,0.852-0.883,0.852-1.55c0.033-0.4-0.134-0.783-0.5-1.15c-0.334-0.367-0.984-0.65-1.951-0.85l-3.849-0.85
		c-2.302-0.5-4.018-1.3-5.151-2.4C223.501,27.017,222.949,25.517,222.949,23.65"/>
	<path clip-path="url(#SVGID_2_)" fill-rule="evenodd" clip-rule="evenodd" fill="#215398" d="M39.6,0l17.85,7.75l-17.85,7.8
		l-17.85-7.8L39.6,0z M39.6,47.15l17.85,7.75L39.6,62.7l-17.85-7.8L39.6,47.15z M21.75,31.35L39.6,23.6l17.85,7.75l-17.85,7.8
		L21.75,31.35z"/>
</g>
</svg>
